<svg xmlns="http://www.w3.org/2000/svg" viewBox="0 0 505.18 130.91">
  <defs>
    <style>
      .a {
        fill: #f15c22;
      }

      .b {
        fill: #fff;
      }
    </style>
  </defs>
  <title>IPCamLive Logo</title>
  <g>
    <g>
      <path class="a" d="M65.49,65.43a49.63,49.63,0,0,1,5.49-23A6.12,6.12,0,0,0,69.62,35l-.4-.35a6.16,6.16,0,0,0-9.39,1.51,58.19,58.19,0,0,0,2.26,62,6.11,6.11,0,0,0,8.71,1.25l.27-.21a6.19,6.19,0,0,0,1.41-8.19A49,49,0,0,1,65.49,65.43Z"/>
      <path class="a" d="M38.91,65.43A63.43,63.43,0,0,1,51.55,27.26a6.73,6.73,0,0,0-.87-9.09h0a6.71,6.71,0,0,0-9.84,1A77.94,77.94,0,0,0,42,113.21a6.74,6.74,0,0,0,9.42,1.19h0a6.75,6.75,0,0,0,1.1-9.56A63.41,63.41,0,0,1,38.91,65.43Z"/>
      <path class="a" d="M31.83,129.5a6.77,6.77,0,0,0,1.09-9.65A86.11,86.11,0,0,1,32.9,11a6.75,6.75,0,0,0-.75-9.32h0a6.79,6.79,0,0,0-9.78.81,99.65,99.65,0,0,0,0,125.86,6.8,6.8,0,0,0,9.42,1.13Z"/>
    </g>
    <g>
      <path class="b" d="M109.44,28.63a8.59,8.59,0,0,1-1.08,4.82,4.91,4.91,0,0,1-3.21,1.84,17.58,17.58,0,0,1-5.61.16,6.15,6.15,0,0,1-3.68-1.4,6.36,6.36,0,0,1-1.43-4.13,10.92,10.92,0,0,1,.7-5.29c1.39-2.93,5.51-2.89,8.26-2.7,1.57.11,3.48.36,4.63,1.58S109.44,26.92,109.44,28.63Zm-1,61.91c0,1.93-3.15,2-4.47,2a27.08,27.08,0,0,1-6.2-.22c-1.13-.21-2.3-.56-2.39-1.86,0-.23,0-.46,0-.68V51.64c0-2.37-.14-4.78,0-7.15.17-2.84,5.9-2.32,7.79-2.26s5.24,0,5.27,2.46c.12,7.49,0,15,0,22.47V90.54Z"/>
      <path class="b" d="M168,66.74c0,6.82-1.15,14.24-5.38,19.81a18.44,18.44,0,0,1-17.71,6.71c-4.11-.7-7.48-3.31-10.4-6.14,0,7.17.14,14.35,0,21.52-.06,3-5.28,2.52-7.27,2.48-1.8,0-5.67.11-5.79-2.38-.09-1.91,0-3.84,0-5.75V49.9c0-1.82-.1-3.68,0-5.5.15-2.81,5.4-2.26,7.3-2.13,1.5.1,3.61.24,3.74,2.11.07,1,0,2,0,2.94v2.42a30.35,30.35,0,0,1,9-6.8,19.8,19.8,0,0,1,10.85-1.4c7,1,11.77,6.14,13.92,12.62A40.13,40.13,0,0,1,168,66.74Zm-13.58.93c0-6.11-1.56-15.69-9.63-15.17-3.69.24-6.61,2.93-8.88,5.62-.5.6-1.29,1.26-1.4,2a10.28,10.28,0,0,0,0,1.45V72.49a10,10,0,0,0,0,2.65c.22.66,1.18,1.45,1.65,2S137.37,78.4,138,79a13.61,13.61,0,0,0,3.85,2.75,7.8,7.8,0,0,0,9.36-2.51C153.7,76.06,154.44,71.6,154.44,67.67Z"/>
      <path class="b" d="M213.44,83.18a11.85,11.85,0,0,1-.55,4.69c-.57,1.26-2.1,2.07-3.25,2.7a25.05,25.05,0,0,1-10.32,2.83c-6.76.42-13.88-1.46-18.31-6.86s-5.53-12.91-5.33-19.76c.19-6.63,1.79-13.6,6.36-18.63,4.82-5.31,12.33-7.37,19.32-6.63A20.31,20.31,0,0,1,211.24,45c2.48,1.87,2.18,5.66,1.89,8.45-.1,1-.3,2.66-1.37,3.08-1.31.51-2.9-1.13-3.87-1.78a14.46,14.46,0,0,0-9.3-2.78c-6.31.47-8.86,6.32-9.41,11.89-.59,6-.24,15.43,6.51,18a12.57,12.57,0,0,0,9.62-.59,24,24,0,0,0,4.47-2.85c1.12-.87,2.72-1.82,3.27.14A17.14,17.14,0,0,1,213.44,83.18Z"/>
      <path class="b" d="M261.66,90.69c0,1.85-2.7,1.85-4,1.89-1.75.07-3.93.27-5.61-.35s-1.17-3.68-1.17-5.22a19.87,19.87,0,0,1-11.56,6.27,20.87,20.87,0,0,1-13.12-2.17c-7.42-4.27-9.27-15.79-3.45-22.17C228.1,63.06,237.6,62.7,245,62.7a23.71,23.71,0,0,0,3.51,0c.33-.05.26.08.37-.16a5.83,5.83,0,0,0,0-1.83c0-3.55-.46-7.51-4.29-8.86-4.12-1.46-9.08-.46-13,1-2,.75-3.88,1.88-5.87,2.71s-3.12-.43-3.5-2.39c-.34-1.75-.51-4.15.35-5.78s2.95-2.53,4.6-3.23a36.54,36.54,0,0,1,13.75-2.81c4.34,0,9,.33,12.93,2.27a13.38,13.38,0,0,1,7.15,9.18c.92,3.78.73,7.73.73,11.59V90.69ZM248.85,70.89c-5.55,0-16.21-1.16-16.68,6.65a6.07,6.07,0,0,0,2.23,5.4,8.4,8.4,0,0,0,6,1.24,11.58,11.58,0,0,0,6-3c.47-.41.93-.85,1.36-1.29.28-.29.88-.72,1-1.08a3.09,3.09,0,0,0,0-.81Z"/>
      <path class="b" d="M348.24,90.54c0,1.93-3.11,2-4.42,2a25.27,25.27,0,0,1-6.54-.27c-1.11-.24-2-.67-2.06-1.91,0-.42,0-.85,0-1.28V63.77c0-2.61-.17-5.35-1.47-7.68a6.39,6.39,0,0,0-4.88-3.34,8.06,8.06,0,0,0-6,2,30.44,30.44,0,0,0-4.39,4.45c-.47.56-.48.52-.48,1.12V79.41c0,3.59,0,7.19,0,10.78,0,2.7-4.19,2.41-6.11,2.42s-6.86.47-6.9-2.39c-.12-8.33,0-16.67,0-25,0-1.32,0-2.66-.08-4-.37-4.35-2.55-8.8-7.55-8.54a9.4,9.4,0,0,0-5.61,2.77,28.22,28.22,0,0,0-2.1,2.11q-.59.66-1.16,1.34c-.2.25-.63.59-.71.88a10.87,10.87,0,0,0,0,2.67v26.6c0,1.31.18,2.47-1.37,3a18.07,18.07,0,0,1-6.25.51c-1.43,0-4.44.13-5.27-1.36a4.83,4.83,0,0,1-.18-2.13V45.47c0-1.14-.12-2.2,1.19-2.73,1.81-.73,4.17-.58,6.07-.48,1.5.08,3.75.18,3.88,2.09.12,1.74,0,3.53,0,5.28,4.07-4.39,9.21-8.22,15.43-8.29s11.94,2.59,14.64,8.45c2.9-3.11,6.26-6,10.31-7.47a18.15,18.15,0,0,1,12,0c7.8,2.81,10,11.1,10,18.61,0,7,0,14,0,21Z"/>
      <path class="a" d="M374.11,90.54c0,2.54-5.52,2.09-7.09,2.07s-5.79.25-6-2.08c-.06-.8,0-1.62,0-2.42V32.35c0-3.27-.15-6.58,0-9.85.07-1.48,1.43-1.89,2.7-2.11a19.73,19.73,0,0,1,8.65.23c1.83.56,1.72,1.71,1.72,3.2V90.54Z"/>
      <path class="a" d="M401.18,28.63a8.59,8.59,0,0,1-1.08,4.82,4.91,4.91,0,0,1-3.21,1.84,17.58,17.58,0,0,1-5.61.16,6.15,6.15,0,0,1-3.68-1.4,6.36,6.36,0,0,1-1.43-4.13,10.92,10.92,0,0,1,.7-5.29c1.39-2.93,5.51-2.89,8.26-2.7,1.57.11,3.48.36,4.62,1.58S401.18,26.92,401.18,28.63Zm-1,61.91c0,1.93-3.15,2-4.47,2a27.08,27.08,0,0,1-6.2-.22c-1.13-.21-2.3-.56-2.39-1.86,0-.23,0-.46,0-.68V51.64c0-2.37-.14-4.78,0-7.15.17-2.84,5.9-2.32,7.79-2.26s5.24,0,5.27,2.46c.12,7.49,0,15,0,22.47V90.54Z"/>
      <path class="a" d="M455.77,44.24a17.71,17.71,0,0,1-1.26,5.5l-2.14,6.44L446,75.34l-4.58,13.79c-.11.34-.21.69-.34,1-1,2.63-4.45,2.38-6.79,2.43a44.56,44.56,0,0,1-8.72-.3,3.58,3.58,0,0,1-3.2-2.62c-1.34-4-2.64-8-4-11.93L412,58.35c-1.15-3.45-2.36-6.9-3.44-10.37a14.2,14.2,0,0,1-.71-3.24c-.1-1.56.91-2.07,2.29-2.3a27.58,27.58,0,0,1,8.45,0,3,3,0,0,1,2.85,2.23c.19.59.37,1.18.55,1.78l5.32,17.16c1.49,4.81,3,9.61,4.48,14.44.16.54.29,1.1.42,1.65,1.23-5.14,3-10.18,4.57-15.24l5.91-19.36c.06-.21.13-.42.19-.63.47-1.44,1.43-1.83,2.85-2a30.86,30.86,0,0,1,5.74-.18C452.83,42.3,455.77,42.25,455.77,44.24Z"/>
      <path class="a" d="M505.18,66.07c0,2.31-1,4.41-3.5,4.64-.43,0-.87,0-1.3,0H473c0,3,.5,6.28,2.35,8.76a10.88,10.88,0,0,0,7.49,4,29.23,29.23,0,0,0,9.55-.46,39.82,39.82,0,0,0,4.31-1.12A22.3,22.3,0,0,1,501,80.51c1.61-.17,1.88,1.2,2,2.52a24.41,24.41,0,0,1-.07,4.45,3.3,3.3,0,0,1-1.58,2.77,18.5,18.5,0,0,1-3.85,1.45A45,45,0,0,1,478,93c-5.88-1-11.38-3.75-14.57-9-3.31-5.38-4-12.21-3.64-18.39s2-12.43,6.12-17.13c4.25-4.87,10.5-7.08,16.85-7.19,6.08-.11,12.4,1.35,16.74,5.88s5.63,10.84,5.66,16.86C505.19,64.74,505.18,65.41,505.18,66.07Zm-12.65-3.73a14,14,0,0,0-1.9-8.2,8.28,8.28,0,0,0-6.47-3.52,9.53,9.53,0,0,0-8,2.82c-2.18,2.38-3,5.76-3.11,8.9h19.49Z"/>
    </g>
  </g>
</svg>
